<?xml version="1.0" encoding="iso-8859-1"?>
<!-- Generator: Adobe Illustrator 16.0.0, SVG Export Plug-In . SVG Version: 6.00 Build 0)  -->
<!DOCTYPE svg PUBLIC "-//W3C//DTD SVG 1.1//EN" "http://www.w3.org/Graphics/SVG/1.1/DTD/svg11.dtd">
<svg xmlns="http://www.w3.org/2000/svg" xmlns:xlink="http://www.w3.org/1999/xlink" version="1.1" id="Capa_1" x="0px" y="0px" width="512px" height="512px" viewBox="0 0 31.61 31.611" style="enable-background:new 0 0 31.61 31.611;" xml:space="preserve">
<g>
	<path d="M10.609,11.393c0,0,0.577,3.131,2.042,3.022c-1.375,1.139-2.316-0.981-2.316-0.981s-1.021,9.343,7.184,11.188   c-8.479,7.42-8.676-2.396-8.676-2.396s-0.236,5.26,0.903,5.223c-6.831,1.412-6.478-2.866-6.478-2.866s-0.196,2.314,0,2.395   c0.197,0.079-5.104-1.295-2.591-4.437c0.196,0.04-1.374,1.806,0.314,1.807c2.434,0-2.708-18.53,6.163-17.705   c3.495-7.576,16.175,2.786,18.963,2.982c3.493,1.492,4.986-1.495,2.669-1.256c0.55-2.786,2.434-0.589,2.669,0.196   c1.256,7.342-5.491,6.512-6.046,6.007c-0.063,0.945,1.648,1.1,3.102,1.178c-2.787,5.496-6.752,3.18-6.752,3.18   s1.531,1.414,1.924,1.178c-1.806,1.1-2.708,0.231-2.708,0.231s0.078,0.515,0.471,0.867c-4.004,2.631-4.083,0.118-4.083,0.118   s0.856-0.026,1.071-0.419c0.216-0.395-0.738-0.588-0.601-0.8c0.138-0.211,1.158-0.254,1.256-0.47   c0.099-0.217-0.727-0.511-0.667-0.707c0.059-0.196,0.98-0.412,1.06-0.746c0.078-0.333-2.493-0.745-2.198-3.259   C13.81,15.316,10.609,11.393,10.609,11.393z" fill="#555555"/>
</g>
<g>
</g>
<g>
</g>
<g>
</g>
<g>
</g>
<g>
</g>
<g>
</g>
<g>
</g>
<g>
</g>
<g>
</g>
<g>
</g>
<g>
</g>
<g>
</g>
<g>
</g>
<g>
</g>
<g>
</g>
</svg>
